<?xml version="1.0" encoding="utf-8"?>
<!-- Generator: Adobe Illustrator 17.0.0, SVG Export Plug-In . SVG Version: 6.00 Build 0)  -->
<!DOCTYPE svg PUBLIC "-//W3C//DTD SVG 1.1//EN" "http://www.w3.org/Graphics/SVG/1.1/DTD/svg11.dtd">
<svg version="1.1" id="图层_1" xmlns="http://www.w3.org/2000/svg" xmlns:xlink="http://www.w3.org/1999/xlink" x="0px" y="0px"
	 width="220.125px" height="26.5px" viewBox="0 0 220.125 26.5" enable-background="new 0 0 220.125 26.5" xml:space="preserve">
<g>
	<path fill="#040000" d="M1.25,7.375L4.625,13.5H3.25L0,7.375H1.25z M3.375,16L0,26.375h1.25L4.625,16H3.375z M1.625,0.75L5,6.875
		H3.625L0.375,0.75H1.625z M9.875,2.375H28.25V3.5H9.375l-1.75,5.25h-1.25l2.875-8.5h1.25L9.875,2.375z M8.25,26.5L9,16.875H7.125
		V15.75h2l0.75-8.25h17.25L27,15.75h1.875v1.125H27L26.875,26.5H8.25z M17.5,17.875l3,7.5h5.125l0.125-8.5h-15.5l-0.625,8.5h9.5
		l-3-7.5H17.5z M17.5,9.375l3,6.375h5.25V8.625H11l-0.625,7.125h8.875l-3.125-6.375H17.5z"/>
	<path fill="#040000" d="M33.25,9.875h27V11h-27V9.875z M33.25,25.625h12.625V23.5h-10.75v-1.125h10.75V20.25H35.75v-7.375h22h0.125
		v7.375h-10.75v2.125H58.25V23.5H47.125v2.125H60.25v1.125h-27V25.625z M57.875,0.875v7H57.75H35.875H35.75v-7H57.875z M56.625,3.75
		V2H37v1.75H56.625z M56.625,6.75V4.875H37V6.75H56.625z M45.875,16v-2H37v2H45.875z M45.875,19.125v-2H37v2H45.875z M47.125,14v2
		h9.5v-2H47.125z M47.125,17.125v2h9.5v-2H47.125z"/>
	<path fill="#040000" d="M65.125,6.875v-1.25L78.625,0l12.75,5.5v1.25l-12.75-5.5L65.125,6.875z M89.875,19.875l-7.125,5.5h9.125
		V26.5H65.25v-1.125h9l-7.5-5.5v-1.5l8.375,6.25v0.75H78v-9H67v-1.25h11v-5.75H66.75V8.25h23.375v1.125H79.25v5.75h10.625v1.25
		H79.25v9h2.625L82,24.625l7.875-6.25V19.875z"/>
	<path fill="#040000" d="M111,1.5v1.125H97V1.5H111z M109.625,25.375V14.75H98.25V26.5H97V13.625h13.875V26.5h-3.5l-0.75-1.125
		H109.625z M98.125,5.375h11.625v5.5H98.125V5.375z M101.75,19.75H103L100.5,16h-1.25L101.75,19.75z M103.125,21.5H99.25v-1h9.125v1
		h-4.125V26h-1.125V21.5z M108.5,9.75V6.5h-9.125v3.25H108.5z M104.125,20.5h1.25L108,16h-1.25L104.125,20.5z M122.25,19.375l2,7
		h-11.625v-1.25h4.875V16.25H113V4.625h4.5v-4.25h1.25v4.25h5.125V16.25h-5.125v8.875h3.875L121,19.375H122.25z M117.5,15.25v-9.5
		h-3.25v9.5H117.5z M118.75,5.75v9.5h3.875v-9.5H118.75z"/>
	<path fill="#040000" d="M128.75,7.375h13.125V0.5h1.25v6.875h13.25V8.5H143.25l-0.75,1.125h1.375l12.5,16.875h-1.5L142.5,9.75
		L130,26.5h-1.375l13.125-18h-13V7.375z"/>
	<path fill="#040000" d="M167.875,8.875l-6,6h-1.625l6-6H167.875z M168,22.25l6.75,2.75v1.25L167,23l-4.5,3.625h-1.75l5-4.125
		l-3.375-1.5l1.875-3.25h-3.75v-1.125h4.25l1.125-1.875h1.25l-1,1.875H175L168,22.25z M170.25,6.25h-1.625h0.25V7h6.75v1.125h-6.75
		v6.625h-1.25V8.125h-7V7h7V6.25h-1.375L161,0.875h1.625l5,5.125V0.75h1.25V6l5-5.125h1.625L170.25,6.25z M164,20.5l2.75,1.25
		l5.125-4H165.5L164,20.5z M168.75,8.875h1.625l5.375,6h-1.625L168.75,8.875z M181.5,15.5l4.875-10.25h-7.5l-1.75,6.5H176l3-11.125
		h1.25l-1,3.5h9.625V5.25h-1.25l-5.375,11.375l6.625,9.875H187.5l-5.875-8.75L177,26.5h-1.25l5.125-9.75l-3.375-5.125h1.375
		L181.5,15.5z"/>
	<path fill="#040000" d="M197.25,0.5v5H201v1.125h-3.75v7.125l3.75-1.375v1.375L197.25,15v11.5h-3.625L193,25.25h3V15.5l-3.75,1.25
		V15.5l3.75-1.375v-7.5h-3.75V5.5H196v-5H197.25z M206.375,17.375h5.375V13.5h-8v6.25l-1.625,6.75h-1.25l1.5-6.75V1.5h15.875h1.25
		v6.625h-0.125H203.75v4.25h8v-3.5h1.375v3.5h7V13.5h-7v3.875h6V26.5H219h-12.625V17.375z M218.25,7V2.625h-14.5V7H218.25z
		 M207.625,18.5v6.875h10.25V18.5H207.625z"/>
</g>
</svg>
