<?xml version="1.0" encoding="utf-8"?>
<!-- Generator: Adobe Illustrator 17.0.0, SVG Export Plug-In . SVG Version: 6.00 Build 0)  -->
<!DOCTYPE svg PUBLIC "-//W3C//DTD SVG 1.1//EN" "http://www.w3.org/Graphics/SVG/1.1/DTD/svg11.dtd">
<svg version="1.1" id="图层_1" xmlns="http://www.w3.org/2000/svg" xmlns:xlink="http://www.w3.org/1999/xlink" x="0px" y="0px"
	 width="442.625px" height="28.75px" viewBox="0 0 442.625 28.75" enable-background="new 0 0 442.625 28.75" xml:space="preserve">
<g>
	<path fill="#040000" d="M19.5,15.5l6.75,10H0.625l10-13.75H0v-1.125h27.25v1.125H12.125L3,24.375h21L18,15.5H19.5z M2.125,2.75h23
		V1.625h-23V2.75z"/>
	<path fill="#040000" d="M30.375,23.375l5.875-1.25L38.125,7.75h1.25L37.5,21.875l3-0.5V22.5l-10.125,2V23.375z M30.75,4.625h4.75
		L34,0.25h1.25l1.375,4.375h4.25V5.75H30.75V4.625z M32.75,7.75l1.125,12.375h-1.25L31.5,7.75H32.75z M53,16.25v9.25h-1.25v-9.25H48
		v9.25h-1.25v-9.25H43v10.375h-1.25v-11.5h7.375l0.75-3.625H41.75v-1.125h17V11.5h-7.625l-0.75,3.625h7.875V26.25v0.25h-2.875
		l-0.625-1.25H57v-9H53z M50.75,0v6.5h6.125V1.125h1.25v6.5h-16v-6.5h1.25V6.5H49.5V0H50.75z"/>
	<path fill="#040000" d="M77.875,3.125v13.25H90.75V17.5H77.875v10h-1.25v-10H63.5v-1.125h13.125V3.125h-11.75V2H89.5v1.125H77.875z
		 M67.5,5.625l5.75,9h-1.375l-5.75-9H67.5z M86.75,5.625l-5.75,9h1.5l5.75-9H86.75z"/>
	<path fill="#040000" d="M117.625,4.375l4,6.125H96.5l8-10h1.5l-7,8.875h20.125l-3-5H117.625z M120.375,15.75v9.875v1.125h-22.25
		v-1.125V15.75v-1.125h22.25V15.75z M119.125,25.625V15.75h-19.75v9.875H119.125z"/>
	<path fill="#040000" d="M135,19.75v2.75c0.082,2.832-0.918,4.916-3,6.25L131.125,28c1.832-1.334,2.707-3,2.625-5H132v-3.25H135z"/>
	<path fill="#040000" d="M184.75,16H161.5v10.375h-1.25v-11.5H186v11.5h-3.75l-0.75-1.125h3.25V16z M160.625,3.375V2.25h26v1.125
		H160.625z M183.75,6v6H163V6H183.75z M164.25,7.125v3.75h18.25v-3.75H164.25z M164.75,24.75V18.5h16.875v6.25H164.75z M166,23.625
		h14.375v-4H166V23.625z M172,0.25h1.25l1.375,2h-1.25L172,0.25z"/>
	<path fill="#040000" d="M197.5,0.625l1.625,2.25h6.75v1h-15.25v-1h7.125l-1.625-2.25H197.5z M190.625,13.125l3.875-8.5h1.375
		l-3.875,8.5H190.625z M194.75,10.375l3.5,4.625l3-4.625h1.625L199.125,16L205,24.125h-1.5L198.25,17l-6,9.5h-1.5l6.625-10.5
		l-4.25-5.625H194.75z M204.25,13.125l-3.875-8.5h1.375l3.875,8.5H204.25z M209,12.625l2.375,3.5l5-10.875h-7.625l-1.625,6h-1.25
		l2.875-10.625H210l-0.875,3.5h9.75V5.25h-1.125l-5.5,12l6.375,9.25h-1.5l-5.5-8.125L207,26.5h-1.375l5.125-9.125l-3.125-4.75H209z"
		/>
	<path fill="#040000" d="M231,10.375v15.75h-6.25L224.5,14l-0.875,2.625h-1.25L226.625,3h-3.875V2h9.75v1h-4.625l-2.25,7.375H231z
		 M225.75,25h4V11.375h-4V25z M235,26.625l1.75-8.25V13.75H233v-1.125h3.75V3h-2.625V2h16.25v1h-2.625v9.625H251v1.125h-3.25v13
		h-1.25v-13H238v4.625l-1.75,8.25H235z M238,3v9.625h8.5V3H238z"/>
	<path fill="#040000" d="M268.375,0.125L270.125,3H281.5v5.5h-1.25V4.125h-22.875V8.5h-1.25V4.125H256V3h12.625l-1.75-2.875H268.375
		z M265.125,6.75l-9,6v-1.5l9-5.875V6.75z M281.5,18.875V26.5h-8.625v-0.25l1-11.375h-8.625l-6.625,11.75h-1.375l6.625-11.75h-6.75
		V13.75h7.375l2-3.75h1.375l-2,3.75h9.375l-0.125,1.125l-0.875,10.5h6.125v-7.25L281.5,18.875z M272.375,6.625l8.5,6.25V11.25
		l-8.5-6V6.625z"/>
	<path fill="#040000" d="M295,19.75v2.75c0.082,2.832-0.918,4.916-3,6.25L291.125,28c1.832-1.334,2.707-3,2.625-5H292v-3.25H295z"/>
	<path fill="#040000" d="M324.5,0.5v5.75h4.375v1.125H324.5V26.75h-1.25v-18l-3.25,10h-1.25l3.625-11.375h-3.75V6.25h4.625V0.5
		H324.5z M326.125,9.75l2.75,6.375H327.5l-2.75-6.375H326.125z M334.25,12.875l4.875,6l-5.875,7.875h1.375l5.25-7l5.75,7h1.5
		l-6.5-7.875l6.5-8.875h-5.875l3.875-8.375L345.25,1.5H329.5v1.125h1.25v16.25l-3.625,7.875h1.375l3.5-7.625v-16.5h11.375
		l-3.875,8.5h5.25l-4.875,6.75l-4.125-5H334.25z"/>
	<path fill="#040000" d="M350.625,10.125H355V21.75l3.375,3.75H379l-0.75,1.125h-20.375L354.5,23l-2.375,3.75h-1.25l3-5v-10.5h-3.25
		V10.125z M353.125,1l4.375,6.5h-1.375L351.75,1H353.125z M368.875,16.125v7.5h-1.125v-7.5H366l-0.125,0.75L358,23.625v-1.5l7.125-6
		h-6H359v-9h8.75V3.5h-8.875V2.25h8.875V0.375h1.125V2.25h9.375V3.5h-9.375v3.625h9v9h-0.125h-6.25l7,5.75V23.5l-7.875-6.625v-0.75
		H368.875z M360.125,15h7.625V8.25h-7.625V15z M368.875,15h7.75V8.25h-7.75V15z"/>
	<path fill="#040000" d="M385,26.5V1.375h24.75V26.5H385z M408.5,25.375V2.5h-22.25v22.875H408.5z M391,20.625V7.375h12.625v13.25
		H391z M402.375,19.5v-11H392.25v11H402.375z"/>
	<path fill="#040000" d="M416.5,7.375l3.375,6.125H418.5l-3.25-6.125H416.5z M418.625,16l-3.25,10.625h1.25L419.875,16H418.625z
		 M416.875,0.5l3,5.5H418.5l-2.875-5.5H416.875z M423,26.625l5.375-6.875V5.5h-1.25v13.875l-5.625,7.25H423z M422.5,1.375H433V19.5
		h-1.25v-17h-8v17h-1.25V1.375z M429.375,20.5l4.5,6.125h-1.5l-4.5-6.125H429.375z M437.875,2.625v18h-1.25v-18H437.875z
		 M437.625,25.5h3.75v-25h1.25v26.125h-4.375L437.625,25.5z"/>
</g>
</svg>
