<?xml version="1.0" encoding="utf-8"?>
<!-- Generator: Adobe Illustrator 17.0.0, SVG Export Plug-In . SVG Version: 6.00 Build 0)  -->
<!DOCTYPE svg PUBLIC "-//W3C//DTD SVG 1.1//EN" "http://www.w3.org/Graphics/SVG/1.1/DTD/svg11.dtd">
<svg version="1.1" id="图层_1" xmlns="http://www.w3.org/2000/svg" xmlns:xlink="http://www.w3.org/1999/xlink" x="0px" y="0px"
	 width="380.625px" height="29.5px" viewBox="0 0 380.625 29.5" enable-background="new 0 0 380.625 29.5" xml:space="preserve">
<g>
	<path fill="#040000" d="M-0.125,7.875v-1.25H4V1.25h1.125v5.375h3v1.25h-3V27.75H4V9.25l-2.75,10H0L3.125,7.875H-0.125z
		 M6.625,10.125l1.75,5.75h-1.25l-1.75-5.75H6.625z M8,26.375l9.5-4.875H7.75v-1.125h9.75v-3.25H9.375v-9.75H27v9.75h-8.25v3.25H28
		V21.5h-9.25v0.625L8,27.75V26.375z M23.375,1.25v1.5H28V4h-4.625v2.25h-1.25V4H14.25v2.25H13V4H7.875V2.75H13v-1.5h1.25v1.5h7.875
		v-1.5H23.375z M10.625,11.5H25.75v-3H10.625V11.5z M25.75,12.625H10.625V16H25.75V12.625z M27.875,27.75L19,23.5v-1.25l8.875,4.125
		V27.75z"/>
	<path fill="#040000" d="M31.75,16.25l3.875-1.5V7.375H31.75V6.25h3.875V1.625h1.25V6.25h4.375v1.125h-4.375v6.875l4.375-1.625v1.25
		L36.875,15.5v11.875h-3.5L32.75,26.25h2.875V16l-3.875,1.5V16.25z M42,24.5l1.375-1V2.875h1.25v19.75L51.875,17v1.5L42,26V24.5z
		 M47.5,28.25l10-9.375l1-16.625h-1.125L56.25,18.375L47.625,26.5L47.5,28.25z M49.5,1.25l2.875,7.625H51L48.125,1.25H49.5z
		 M58.125,20.625l2.375,7h-1.375l-2.375-7H58.125z"/>
	<path fill="#040000" d="M63.75,3.625h26.375V4.75H63.75V3.625z M88.75,27.125L77.375,17.5l-11.5,9.625H64L76.375,16.75l-6.5-5.5
		h1.75l5.75,4.75L83,11.125h1.875L78.25,16.75l12.375,10.375H88.75z M72.5,7.75l-7.375,6.75V13L72.5,6.25V7.75z M77,0.5l2,2.625
		h-1.625L75.5,0.5H77z M81.75,6l7.5,6.875V14.5l-7.5-6.875V6z"/>
	<path fill="#040000" d="M109.5,16.75l-10,10.125h-1.625l10-10.125h-6.75L98.25,21h-1.375L102,13.25h1.5L102,15.5h20.625
		l-0.375,11.75h-8.625L113,26.125h8l0.375-9.375h-5L107.25,27h-1.625l9.25-10.25H109.5z M99.25,1.875h22.125h0.25V12H99.25V3V1.875z
		 M120.375,3H100.5v3.125h19.875V3z M100.5,10.875h19.875V7.25H100.5V10.875z"/>
	<path fill="#040000" d="M136.125,20.5v2.75c0.082,2.832-0.918,4.916-3,6.25l-0.875-0.75c1.832-1.334,2.707-3,2.625-5h-1.75V20.5
		H136.125z"/>
	<path fill="#040000" d="M187.125,1.875V3h-22.75v2.125h20.875V6.25h-22.125V3h-2.5V1.875H187.125z M166.625,22.375h-3.375l-1,5
		h-1.125l1-5.375v-8h5.625v13.375h-3.25l-0.625-1.125h2.75V22.375z M163.25,17.625h3.375v-2.5h-3.375V17.625z M163.25,21.25h3.375
		v-2.5h-3.375V21.25z M163.375,12.125v-4.25h21.375v4.25H163.375z M183.5,11V9h-18.875v2H183.5z M169.5,27.375L172.625,22v-5.75
		h1.125v6.125l-2.875,5H169.5z M176.875,14.125V24.25h-1.125v-9h-5v9h-1.125V14.125H176.875z M171.75,0h1.625l1.75,1.875H173.5
		L171.75,0z M175.625,27.375l-2.25-4.25h1.25l2.25,4.25H175.625z M187.625,23.125l-0.25,4.25h-3.25H184V15.25h-4.25v6.875
		l-1.25,5.25h-1.25l1.375-5.5v-7.75h6.5v12h1.125l0.25-3.75L187.625,23.125z M181.25,17.5l2.75,5.875h-1.25L180,17.5H181.25z"/>
	<path fill="#040000" d="M194,24.125V3.25h-2V2.125h14.125V3.25h-2v19.125l3.125-0.625v1.125l-3.125,0.625v3.75h-1.25v-3.5
		l-11.125,2v-1.125L194,24.125z M195.25,9h7.625V3.25h-7.625V9z M195.25,16.25h7.625v-6.125h-7.625V16.25z M202.875,17.5h-7.625V24
		l7.625-1.5V17.5z M207.5,5.75l5.375,10.125L207,27.25h1.375l5.25-10l5.125,10.125h1.375l-5.875-11.5l6-12.75h-12.875V4.25h11
		L213.5,14.5l-4.625-8.75H207.5z"/>
	<path fill="#040000" d="M232.875,17.875l-0.125,0.5l-7.75,4.25v-1.25l6.625-3.5H224.5V16.75h4.25V4.375h-3.5V3.25h3.5V1h1.125v2.25
		h16.875V1H248v2.25h3.125v1.125H248V16.75h3.875v1.125h-7.125l6.75,3.5v1.25l-8-4.25l-0.125-0.5H232.875z M238.625,18.875V21.5h8
		v1.125h-8V26h12v1.125H225.75V26h11.625v-3.375H229.5V21.5h7.875v-2.625H238.625z M229.875,7.5h16.875V4.375h-16.875V7.5z
		 M229.875,12h16.875V8.625h-16.875V12z M246.75,13.125h-16.875v3.625h16.875V13.125z"/>
	<path fill="#040000" d="M256.75,7.625v-1.25l13.5-5.625L283,6.25V7.5L270.25,2L256.75,7.625z M281.5,20.625l-7.125,5.5h9.125v1.125
		h-26.625v-1.125h9l-7.5-5.5v-1.5l8.375,6.25v0.75h2.875v-9h-11v-1.25h11v-5.75h-11.25V9h23.375v1.125h-10.875v5.75H281.5v1.25
		h-10.625v9h2.625l0.125-0.75l7.875-6.25V20.625z"/>
	<path fill="#040000" d="M296.75,3.625l2,3.625h-1.375L295.5,3.625h-2.75l-2.5,4.5H289L292.875,1h1.25l-0.75,1.375h9.25v1.25H296.75
		z M301.625,6l0.5,0.875l3-5.875h1.375l-0.75,1.375h10v1.25h-6.5l2,3.625h-1.375l-2-3.625h-2.75l-1.75,3.5h-1l0.875,1.5h11.875v4.25
		h-1.25V9.75h-23.25v3.125h-1.25v-4.25h12.5L300.375,6H301.625z M312.625,21.125v6.25h-20V12.5h19.5V18H293.75v3.125h17.75H312.625z
		 M293.75,16.875h17.125v-3.25H293.75V16.875z M311.5,26.125V22.25h-17.75v3.875H311.5z"/>
	<path fill="#040000" d="M319.625,24.75l3.875-1.375v-9.75h-3.875V12.5h3.875V4.375h-4V3.25h9.75v1.125h-4.5V12.5H329v1.125h-4.25
		V23l4.25-1.25V23l-9.375,3V24.75z M328.75,26.25h9.625v-5.125h-7.625V20h7.625v-4.5h-8.125V1.75h17.5V15.5h-8.125V20h7.625v1.125
		h-7.625v5.125h9.25v1.125H328.75V26.25z M338.375,8V2.875H331.5V8H338.375z M338.375,14.375v-5.25H331.5v5.25H338.375z
		 M339.625,2.875V8h6.75V2.875H339.625z M339.625,9.125v5.25h6.75v-5.25H339.625z"/>
	<path fill="#040000" d="M357.75,1v5.625h4.625V7.75h-4.625v19.5h-1.25v-18l-3.125,9.875H352l3.625-11.375h-3.75V6.625h4.625V1
		H357.75z M359.375,10.125l2.875,6.375h-1.375l-2.75-6.375H359.375z M364.125,5.75l6.125,9L361,27.375h1.5l8.5-11.5l8.125,11.5h1.5
		L371.75,14.75l7.875-11.25h-17v1.125h14.75l-6.375,9l-5.375-7.875H364.125z"/>
</g>
</svg>
