<?xml version="1.0" standalone="no"?><!DOCTYPE svg PUBLIC "-//W3C//DTD SVG 1.1//EN" "http://www.w3.org/Graphics/SVG/1.1/DTD/svg11.dtd"><svg t="1522060474462" class="icon" style="" viewBox="0 0 1024 1024" version="1.1" xmlns="http://www.w3.org/2000/svg" p-id="3788" xmlns:xlink="http://www.w3.org/1999/xlink" width="200" height="200"><defs><style type="text/css"></style></defs><path d="M794.9 394.9h127.2v141.7H794.9z" fill="#bfbfbf" p-id="3789"></path><path d="M794.9 394.9h127.2v141.7H794.9z" fill="#bfbfbf" p-id="3790"></path><path d="M794.9 394.9v40h87.2v101.7h40V394.9z" fill="#bfbfbf" p-id="3791"></path><path d="M922.1 556.6H794.9c-11 0-20-9-20-20V394.9c0-11 9-20 20-20h127.2c11 0 20 9 20 20v141.7c0 11-9 20-20 20z m-107.2-40h87.2V414.9h-87.2v101.7z" fill="#bfbfbf" p-id="3792"></path><path d="M794.9 514.5h127.2v159.6H794.9z" fill="#bfbfbf" p-id="3793"></path><path d="M794.9 514.5v40h87.2v119.6h40V514.5z" fill="#bfbfbf" p-id="3794"></path><path d="M922.1 694.1H794.9c-11 0-20-9-20-20V514.5c0-11 9-20 20-20h127.2c11 0 20 9 20 20v159.6c0 11-9 20-20 20z m-107.2-40h87.2V534.5h-87.2v119.6z" fill="#bfbfbf" p-id="3795"></path><path d="M565.9 577.9h127.2v236.9H565.9z" fill="#bfbfbf" p-id="3796"></path><path d="M565.9 577.9v70h87.2v166.9h40V577.9z" fill="#bfbfbf" p-id="3797"></path><path d="M693.1 834.8H565.9c-11 0-20-9-20-20V577.9c0-11 9-20 20-20h127.2c11 0 20 9 20 20v236.9c0 11-9 20-20 20z m-107.2-40h87.2V597.9h-87.2v196.9z" fill="#bfbfbf" p-id="3798"></path><path d="M565.9 213.9h127.2v394H565.9z" fill="#bfbfbf" p-id="3799"></path><path d="M565.9 213.9v40h87.2v354h40v-394z" fill="#bfbfbf" p-id="3800"></path><path d="M693.1 627.9H565.9c-11 0-20-9-20-20v-394c0-11 9-20 20-20h127.2c11 0 20 9 20 20v394c0 11-9 20-20 20z m-107.2-40h87.2V233.9h-87.2v354z" fill="#bfbfbf" p-id="3801"></path><path d="M334.9 492.5h127.2v404.6H334.9z" fill="#bfbfbf" p-id="3802"></path><path d="M334.9 492.5v76h87.2v328.6h40V492.5z" fill="#bfbfbf" p-id="3803"></path><path d="M462.1 917.1H334.9c-11 0-20-9-20-20V492.5c0-11 9-20 20-20h127.2c11 0 20 9 20 20v404.6c0 11.1-9 20-20 20z m-107.2-40h87.2V512.5h-87.2v364.6z" fill="#bfbfbf" p-id="3804"></path><path d="M334.9 126.9h127.2v404.6H334.9z" fill="#bfbfbf" p-id="3805"></path><path d="M334.9 126.9v40h87.2v364.6h40v-404.6z" fill="#bfbfbf" p-id="3806"></path><path d="M462.1 551.5H334.9c-11 0-20-9-20-20v-404.6c0-11 9-20 20-20h127.2c11 0 20 9 20 20v404.6c0 11-9 20-20 20z m-107.2-40h87.2V146.9h-87.2v364.6z" fill="#bfbfbf" p-id="3807"></path><path d="M101.9 418.9h127.2V674H101.9z" fill="#bfbfbf" p-id="3808"></path><path d="M101.9 418.9v60h87.2v195.2h40V418.9z" fill="#bfbfbf" p-id="3809"></path><path d="M229.1 694.1H101.9c-11 0-20-9-20-20V418.9c0-11 9-20 20-20h127.2c11 0 20 9 20 20V674c0 11.1-9 20.1-20 20.1z m-107.2-40h87.2V438.9h-87.2v215.2z" fill="#bfbfbf" p-id="3810"></path><path d="M101.9 262.2h127.2v182.4H101.9z" fill="#bfbfbf" p-id="3811"></path><path d="M101.9 262.2v40h87.2v142.4h40V262.2z" fill="#bfbfbf" p-id="3812"></path><path d="M229.1 464.6H101.9c-11 0-20-9-20-20V262.2c0-11 9-20 20-20h127.2c11 0 20 9 20 20v182.4c0 11-9 20-20 20z m-107.2-40h87.2V282.2h-87.2v142.4z" fill="#bfbfbf" p-id="3813"></path></svg>