<!-- Generated by IcoMoon.io -->
<svg version="1.1" xmlns="http://www.w3.org/2000/svg" width="32" height="32" viewBox="0 0 32 32">
<title>brand</title>
<path fill="#7bb32e" d="M31.386 17c-0.812-1.84-2.344-3.3-4.12-4.2-3.14-1.59-7.044-1.58-10.172 0.040-2.176 1.116-3.99 3.116-4.506 5.55-0.426 1.792-0.044 3.72 0.906 5.28 1.414 2.35 3.97 3.85 6.626 4.33 1.926 0.392 3.916 0.16 5.786-0.38 1.12 0.436 2.12 1.14 3.21 1.66-0.28-0.94-0.58-1.874-0.9-2.8 1.22-0.868 2.326-1.948 2.992-3.304 0.992-1.89 1.052-4.23 0.18-6.174zM18.156 4.38c-3.326-1.872-7.47-2.154-11.048-0.86-2.35 0.846-4.48 2.42-5.794 4.56-1.192 1.934-1.64 4.344-1.064 6.556 0.576 2.454 2.28 4.51 4.348 5.884-0.4 1.132-0.78 2.266-1.14 3.406 1.3-0.68 2.6-1.39 3.9-2.080 1.56 0.5 3.22 0.744 4.88 0.69-0.44-1.26-0.54-2.62-0.34-3.936 0.3-1.828 1.3-3.5 2.66-4.74 2.3-2.152 5.56-3.060 8.66-2.84-0.58-2.846-2.58-5.252-5.1-6.64zM20.464 17.7c-0.276 0.868-1.54 1.13-2.152 0.468-0.674-0.612-0.412-1.892 0.472-2.164 0.98-0.414 2.11 0.716 1.68 1.696zM26.858 17.82c-0.34 0.784-1.52 0.964-2.1 0.36-0.28-0.254-0.36-0.636-0.46-0.974 0.14-0.61 0.56-1.244 1.24-1.272 0.94-0.13 1.78 1.030 1.3 1.886zM17.32 9.216c0.010 1.28-1.7 2.080-2.66 1.212-0.996-0.714-0.714-2.45 0.456-2.81 1.046-0.42 2.284 0.46 2.2 1.58zM9.24 9.54c-0.228 1.114-1.72 1.652-2.594 0.904-1.012-0.712-0.728-2.48 0.46-2.84 1.164-0.448 2.486 0.734 2.136 1.936z"></path>
</svg>
