<?xml version="1.0" standalone="no"?><!DOCTYPE svg PUBLIC "-//W3C//DTD SVG 1.1//EN" "http://www.w3.org/Graphics/SVG/1.1/DTD/svg11.dtd"><svg t="1525656743588" class="icon" style="" viewBox="0 0 1024 1024" version="1.1" xmlns="http://www.w3.org/2000/svg" p-id="5465" xmlns:xlink="http://www.w3.org/1999/xlink" width="200" height="200"><defs><style type="text/css"></style></defs><path d="M512 999.060172c-37.514531 0-68.112976-30.598445-68.112976-68.112976s30.598445-68.112976 68.112976-68.112976 68.112976 30.598445 68.112976 68.112976-30.598445 68.112976-68.112976 68.112976zM512 161.16578c-37.514531 0-68.112976-30.598445-68.112976-68.112976s30.598445-68.112976 68.112976-68.112976 68.112976 30.598445 68.112976 68.112976-30.598445 68.112976-68.112976 68.112976zM930.947196 580.112976c-37.514531 0-68.112976-30.598445-68.112976-68.112976s30.598445-68.112976 68.112976-68.112976 68.112976 30.598445 68.112976 68.112976-30.598445 68.112976-68.112976 68.112976zM93.052804 580.112976c-37.514531 0-68.112976-30.598445-68.112976-68.112976s30.598445-68.112976 68.112976-68.112976 68.112976 30.598445 68.112976 68.112976-30.598445 68.112976-68.112976 68.112976z" fill="#999999" p-id="5466"></path><path d="M512 1018.131805c-47.993451 0-87.184609-38.98158-87.184609-87.184609 0-41.077364 29.131396-76.915268 69.160868-85.298404l4.820303-1.047891v-98.711421c0-7.335244 5.868195-13.203438 13.203438-13.203438s13.203438 5.868195 13.203438 13.203438V844.600901l4.820303 1.047891c40.029472 8.383135 69.160868 44.22104 69.160868 85.298404 0 47.993451-39.191158 87.184609-87.184609 87.184609z m0-148.17192c-33.74212 0-60.987311 27.454769-60.987311 60.987311s27.454769 60.987311 60.987311 60.987311c33.74212 0 60.987311-27.454769 60.987311-60.987311s-27.24519-60.987311-60.987311-60.987311zM808.134261 895.31887c-23.263201 0-45.059353-9.011871-61.616046-25.568563-16.347114-16.347114-25.568563-38.352845-25.568563-61.616046 0-16.766271 5.029881-33.322964 14.25133-47.783872l2.724519-3.981989-69.789603-69.789603c-2.514941-2.514941-3.772411-5.658616-3.77241-9.221449 0-3.562833 1.25747-6.706508 3.77241-9.22145 2.514941-2.514941 5.658616-3.772411 9.22145-3.77241 3.562833 0 6.706508 1.25747 9.221449 3.77241l69.999181 69.999182 3.981989-2.724519c13.832174-9.431027 30.179288-14.25133 47.574294-14.251331 23.263201 0 45.059353 9.011871 61.616046 25.568564 16.347114 16.347114 25.568563 38.352845 25.568563 61.616046s-9.011871 45.059353-25.568563 61.616045c-16.556693 16.137536-38.352845 25.358985-61.616046 25.358985z m0-147.752763c-16.137536 0-31.646336 6.287352-43.173148 17.814163s-17.814163 26.826034-17.814163 43.173148c0 16.347114 6.287352 31.646336 17.814163 43.173148s26.826034 17.814163 43.173148 17.814163c16.347114 0 31.646336-6.287352 43.173148-17.814163 23.682358-23.891936 23.682358-62.663938 0-86.346296-11.107655-11.317233-26.197298-17.604585-42.334834-17.604584l-0.838314-0.209579zM677.357348 359.846091c-3.353254 0-6.706508-1.467049-9.22145-3.981989-2.514941-2.514941-3.772411-5.658616-3.77241-9.22145s1.25747-6.706508 3.77241-9.221449l69.999182-69.999181-2.724519-3.981989c-9.431027-13.832174-14.25133-30.179288-14.251331-47.574294 0-23.263201 9.011871-45.059353 25.568564-61.616046 16.347114-16.347114 38.352845-25.568563 61.616046-25.568563s45.059353 9.011871 61.616045 25.568563c16.347114 16.347114 25.568563 38.352845 25.568564 61.616046s-9.011871 45.059353-25.568564 61.616046c-16.347114 16.347114-38.352845 25.568563-61.616045 25.568563-16.766271 0-33.322964-5.029881-47.783873-14.25133l-3.981989-2.724519-69.789603 69.789603c-2.724519 2.514941-6.077773 3.981989-9.431027 3.981989z m130.986492-204.967663c-16.347114 0-31.646336 6.287352-43.173148 17.814163-11.526811 11.317233-17.814163 26.616455-18.023742 42.963569 0 16.347114 6.287352 31.855915 18.023742 43.382727 11.526811 11.526811 26.826034 17.814163 43.173148 17.814163 16.347114 0 31.646336-6.287352 43.173147-17.814163 23.682358-23.891936 23.682358-62.663938 0-86.346296-11.526811-11.526811-26.826034-17.814163-43.173147-17.814163zM215.865739 895.31887c-23.263201 0-45.059353-9.011871-61.616046-25.568563-16.347114-16.347114-25.568563-38.352845-25.568563-61.616046s9.011871-45.059353 25.568563-61.616046c16.347114-16.347114 38.352845-25.568563 61.616046-25.568563 16.766271 0 33.322964 5.029881 47.783872 14.25133l3.981989 2.724519 69.789603-69.789603c2.514941-2.514941 5.658616-3.772411 9.221449-3.77241s6.706508 1.25747 9.22145 3.77241c2.514941 2.514941 3.772411 5.658616 3.77241 9.22145 0 3.562833-1.25747 6.706508-3.77241 9.221449L285.86492 756.577978l2.724519 3.981989c9.431027 13.832174 14.25133 30.179288 14.251331 47.574294 0 23.263201-9.011871 45.059353-25.568564 61.616046-16.347114 16.347114-38.143266 25.568563-61.406467 25.568563z m-0.209579-148.17192c-16.347114 0-31.646336 6.287352-43.173147 17.814163-23.682358 23.891936-23.682358 62.663938 0 86.346296 11.526811 11.526811 26.826034 17.814163 43.173147 17.814163s31.646336-6.287352 43.173148-17.814163c11.526811-11.317233 17.814163-26.616455 18.023742-42.963569 0-16.347114-6.287352-31.855915-18.023742-43.382727-11.526811-11.526811-26.826034-17.814163-43.173148-17.814163zM511.790422 681.548915c-7.335244 0-13.203438-5.868195-13.203439-13.203438v-37.933688h-49.250921c-7.335244 0-13.203438-5.868195-13.203438-13.203439s5.868195-13.203438 13.203438-13.203438h86.555874c21.796152 0 39.610315-17.814163 39.610315-39.610315s-17.814163-39.610315-39.610315-39.610315h-48.203029c-36.466639 0-66.017192-29.550553-66.017192-66.017192s29.550553-66.017192 66.017192-66.017192h10.898076v-37.304953c0-7.335244 5.868195-13.203438 13.203439-13.203439s13.203438 5.868195 13.203438 13.203439v37.304953h47.783872c7.335244 0 13.203438 5.868195 13.203439 13.203438s-5.868195 13.203438-13.203439 13.203438h-84.879247c-21.796152 0-39.610315 17.814163-39.610315 39.610316s17.814163 39.610315 39.610315 39.610315h48.20303c36.257061 0 65.807614 29.550553 65.807613 66.017192 0 36.257061-29.550553 66.017192-66.017192 66.017192h-10.898076v37.933688c0 7.335244-5.868195 13.203438-13.203438 13.203438zM512 291.313958c-7.335244 0-13.203438-5.868195-13.203438-13.203438V179.399099l-4.820303-1.047891c-40.029472-8.383135-69.160868-44.22104-69.160868-85.298404 0-47.993451 38.98158-87.184609 87.184609-87.184609 47.993451 0 87.184609 38.98158 87.184609 87.184609 0 41.077364-29.131396 76.915268-69.160868 85.298404l-4.820303 1.047891v98.711421c0 7.335244-5.868195 13.203438-13.203438 13.203438z m0-259.248465c-33.74212 0-60.987311 27.454769-60.987311 60.987311s27.454769 60.987311 60.987311 60.987311c33.74212 0 60.987311-27.454769 60.987311-60.987311s-27.24519-60.987311-60.987311-60.987311zM930.947196 599.184609c-41.077364 0-76.915268-29.131396-85.298404-69.160868l-1.047891-4.820303h-98.711421c-7.335244 0-13.203438-5.868195-13.203438-13.203438s5.868195-13.203438 13.203438-13.203438H844.600901l1.047891-4.820303c8.383135-40.029472 44.22104-69.160868 85.298404-69.160868 47.993451 0 87.184609 38.98158 87.184609 87.184609 0 47.993451-39.191158 87.184609-87.184609 87.184609z m0-148.17192c-33.74212 0-60.987311 27.454769-60.987311 60.987311s27.454769 60.987311 60.987311 60.987311 60.987311-27.454769 60.987311-60.987311-27.24519-60.987311-60.987311-60.987311zM93.052804 599.184609c-47.993451 0-87.184609-38.98158-87.184609-87.184609 0-47.993451 38.98158-87.184609 87.184609-87.184609 41.077364 0 76.915268 29.131396 85.298404 69.160868l1.047891 4.820303h98.711421c7.335244 0 13.203438 5.868195 13.203438 13.203438s-5.868195 13.203438-13.203438 13.203438H179.399099l-1.047891 4.820303c-8.383135 40.029472-44.22104 69.160868-85.298404 69.160868z m0-148.17192c-33.74212 0-60.987311 27.454769-60.987311 60.987311s27.454769 60.987311 60.987311 60.987311 60.987311-27.454769 60.987311-60.987311-27.24519-60.987311-60.987311-60.987311zM346.433074 359.636512c-3.353254 0-6.706508-1.467049-9.221449-3.981989l-69.999181-69.999181-3.98199 2.724519c-13.832174 9.431027-30.179288 14.25133-47.574294 14.25133-23.263201 0-45.059353-9.011871-61.616045-25.568563S128.471551 238.919361 128.471551 215.65616s9.011871-45.059353 25.568564-61.616045 38.352845-25.568563 61.616045-25.568564 45.059353 9.011871 61.616046 25.568564c16.347114 16.347114 25.568563 38.352845 25.778142 61.825624 0 16.766271-5.029881 33.322964-14.25133 47.574294l-2.724519 3.981989 69.580024 69.580025c2.514941 2.514941 3.772411 5.658616 3.772411 9.221449s-1.25747 6.706508-3.772411 9.221449c-2.514941 2.724519-5.868195 4.191568-9.221449 4.191567zM215.865739 154.66885c-16.347114 0-31.646336 6.287352-43.173148 17.814163-23.682358 23.891936-23.682358 62.663938 0 86.346295 11.107655 11.317233 26.197298 17.604585 42.334834 17.604585h0.838314c16.137536 0 31.646336-6.287352 43.173148-17.814163 23.682358-23.682358 23.682358-62.454359 0-86.136717-11.526811-11.526811-26.826034-17.814163-43.173148-17.814163z" fill="#999999" p-id="5467"></path></svg>