<?xml version="1.0" standalone="no"?><!DOCTYPE svg PUBLIC "-//W3C//DTD SVG 1.1//EN" "http://www.w3.org/Graphics/SVG/1.1/DTD/svg11.dtd"><svg t="1525656830599" class="icon" style="" viewBox="0 0 1024 1024" version="1.1" xmlns="http://www.w3.org/2000/svg" p-id="7426" xmlns:xlink="http://www.w3.org/1999/xlink" width="200" height="200"><defs><style type="text/css"></style></defs><path d="M451.034074 565.911704l-111.691852 139.188148c-0.606815 0.758519-5.101037 6.371556-6.561185 8.040296a43.975111 43.975111 0 0 1-9.253926 8.154074c-7.755852 5.101037-17.256296 7.698963-27.534222 6.257778a39.442963 39.442963 0 0 1-19.342222-8.229926 54.328889 54.328889 0 0 1-5.442371-4.816593c-2.465185-2.427259-3.166815-3.090963-3.90637-3.754666l-93.677037-67.356445v178.725926c0.151704 0.056889 235.19763 0.094815 705.194667 0.132741a6149055.81037 6149055.81037 0 0 0 0.341333-216.424296l0.018963-13.463704c0.18963-112.109037 0.284444-190.577778 0.32237-221.790815L640.758519 649.860741c-24.557037 30.302815-56.50963 43.804444-89.391408 16.365037l-2.56-2.332445-97.754074-97.981629z m-12.8-12.818963l1.175704 1.194666 1.251555 1.024 0.872297-1.061926a18.849185 18.849185 0 0 1-3.299556-1.15674z m149.31437 42.249481L857.088 280.082963c31.269926-35.460741 76.382815-38.798222 92.311704 8.533333 5.271704 15.663407 5.973333 29.165037 5.973333 68.001185 0 15.056593-0.132741 101.072593-0.341333 235.861334l-0.018963 13.463704-0.246519 154.358518-0.113778 68.949333a69.063111 69.063111 0 0 1-69.12 68.835556H173.909333c-37.470815 0-76.041481-29.202963-76.117333-68.835556V625.626074c0-1.782519-0.018963-2.692741-0.132741-9.045333a617.718519 617.718519 0 0 1-0.13274-14.01363c0.037926-13.368889 0.682667-23.191704 2.787555-31.895704 2.920296-12.022519 7.736889-21.579852 20.15763-29.051259 18.337185-11.036444 35.953778-6.200889 48.545185 5.025185l126.976 91.306667 109.093926-135.964444c25.448296-30.72 55.333926-28.975407 84.157629-4.930371l2.56 2.332445 95.744 95.952592z" fill="#F15A4A" p-id="7427"></path><path d="M276.764444 513.839407c-2.104889 0.018963 7.774815 0 44.088889-42.458074l115.806815-123.828148 96.161185 82.033778c11.017481 9.178074 49.398519 43.501037 49.398519 41.79437 0 1.706667 330.56237-374.328889 330.56237-374.328889 1.839407-2.332444 0-22.641778 0-22.641777 0-32.199111-38.627556-12.458667-44.411259-12.458667L806.07763 82.868148C720.080593 106.590815 680.732444 129.34637 701.62963 151.703704l37.925926 37.925926-170.856297 187.354074-94.132148-84.992c-5.669926-4.778667-20.442074-22.433185-37.925926-22.433185-17.445926 0-30.321778 15.113481-37.906963 22.433185l-121.969778 131.128889-83.531851-59.77126c-28.065185-15.796148-45.435259-22.528-63.981037 0C110.743704 385.839407 110.061037 417.773037 132.740741 436.148148l106.458074 54.518519c9.519407 7.736889 37.56563 23.172741 37.565629 23.17274z" fill="#F15A4A" p-id="7428"></path><path d="M276.764444 532.80237c-2.104889 0.018963 7.774815 0 44.088889-42.458074l115.806815-123.828148 96.161185 82.033778c11.017481 9.178074 49.398519 43.501037 49.398519 41.79437 0 1.706667 330.56237-374.328889 330.56237-374.328889 1.839407-2.332444 0-22.641778 0-22.641777 0-32.199111-38.627556-12.458667-44.411259-12.458667L806.07763 101.831111c-85.997037 23.74163-108.828444 38.532741-87.912297 60.890074l31.725037 29.506371L568.699259 395.946667l-94.132148-85.010963c-5.669926-4.778667-20.442074-22.433185-37.925926-22.433185-17.445926 0-30.321778 15.113481-37.906963 22.433185l-121.969778 131.128889-83.531851-59.77126c-28.065185-15.796148-45.435259-22.528-63.981037 0-18.526815 22.490074-8.154074 41.396148 14.525629 59.77126l95.42163 67.546074c9.519407 7.736889 37.56563 23.172741 37.565629 23.17274z" fill="#F15A4A" p-id="7429"></path></svg>